#usda 1.0
(
    defaultPrim = "Can"
    metersPerUnit = 1
    upAxis = "Z"
)

def Xform "Can"
{
    def Mesh "mesh"
    {
        int[] faceVertexCounts = [3, 3, 3, 3, 3, 3, 3, 3, 3, 3, 3, 3,
            3, 3, 3, 3, 3, 3, 3, 3, 3, 3, 3, 3,
            3, 3, 3, 3, 3, 3, 3, 3, 3, 3, 3, 3,
            3, 3, 3, 3, 3, 3, 3, 3, 3, 3, 3, 3,
            3, 3, 3, 3, 3, 3, 3, 3, 3, 3, 3, 3,
            3, 3, 3, 3, 3, 3, 3, 3, 3, 3, 3, 3,
            3, 3, 3, 3, 3, 3, 3, 3, 3, 3, 3, 3,
            3, 3, 3, 3, 3, 3, 3, 3, 3, 3, 3, 3,
            3, 3, 3, 3, 3, 3, 3, 3, 3, 3, 3, 3,
            3, 3, 3, 3, 3, 3, 3, 3, 3, 3, 3, 3,
            3, 3, 3, 3, 3, 3, 3, 3, 3, 3, 3, 3,
            3, 3, 3, 3, 3, 3, 3, 3, 3, 3, 3, 3,
            3, 3, 3, 3, 3, 3, 3, 3, 3, 3, 3, 3,
            3, 3, 3, 3, 3, 3, 3, 3, 3, 3, 3, 3,
            3, 3, 3, 3, 3, 3, 3, 3, 3, 3, 3, 3,
            3, 3, 3, 3, 3, 3, 3, 3, 3, 3, 3, 3,
            3, 3, 3, 3, 3, 3, 3, 3, 3, 3, 3, 3,
            3, 3, 3, 3, 3, 3, 3, 3, 3, 3, 3, 3,
            3, 3, 3, 3, 3, 3, 3, 3, 3, 3, 3, 3,
            3, 3, 3, 3, 3, 3, 3, 3, 3, 3, 3, 3,
            3, 3, 3, 3, 3, 3, 3, 3, 3, 3, 3, 3,
            3, 3, 3, 3, 3, 3, 3, 3, 3, 3, 3, 3,
            3, 3, 3, 3, 3, 3, 3, 3, 3, 3, 3, 3,
            3, 3, 3, 3, 3, 3, 3, 3, 3, 3, 3, 3,
            3, 3, 3, 3, 3, 3, 3, 3, 3, 3, 3, 3,
            3, 3, 3, 3, 3, 3, 3, 3, 3, 3, 3, 3,
            3, 3, 3, 3, 3, 3, 3, 3, 3, 3, 3, 3,
            3, 3, 3, 3, 3, 3, 3, 3, 3, 3, 3, 3,
            3, 3, 3, 3, 3, 3, 3, 3, 3, 3, 3, 3,
            3, 3, 3, 3, 3, 3, 3, 3, 3, 3, 3, 3,
            3, 3, 3, 3, 3, 3, 3, 3, 3, 3, 3, 3,
            3, 3, 3, 3, 3, 3, 3, 3, 3, 3, 3, 3]
        int[] faceVertexIndices = [0, 1, 97, 0, 97, 96, 192, 1, 0, 193, 96, 97,
            1, 2, 98, 1, 98, 97, 192, 2, 1, 193, 97, 98,
            2, 3, 99, 2, 99, 98, 192, 3, 2, 193, 98, 99,
            3, 4, 100, 3, 100, 99, 192, 4, 3, 193, 99, 100,
            4, 5, 101, 4, 101, 100, 192, 5, 4, 193, 100, 101,
            5, 6, 102, 5, 102, 101, 192, 6, 5, 193, 101, 102,
            6, 7, 103, 6, 103, 102, 192, 7, 6, 193, 102, 103,
            7, 8, 104, 7, 104, 103, 192, 8, 7, 193, 103, 104,
            8, 9, 105, 8, 105, 104, 192, 9, 8, 193, 104, 105,
            9, 10, 106, 9, 106, 105, 192, 10, 9, 193, 105, 106,
            10, 11, 107, 10, 107, 106, 192, 11, 10, 193, 106, 107,
            11, 12, 108, 11, 108, 107, 192, 12, 11, 193, 107, 108,
            12, 13, 109, 12, 109, 108, 192, 13, 12, 193, 108, 109,
            13, 14, 110, 13, 110, 109, 192, 14, 13, 193, 109, 110,
            14, 15, 111, 14, 111, 110, 192, 15, 14, 193, 110, 111,
            15, 16, 112, 15, 112, 111, 192, 16, 15, 193, 111, 112,
            16, 17, 113, 16, 113, 112, 192, 17, 16, 193, 112, 113,
            17, 18, 114, 17, 114, 113, 192, 18, 17, 193, 113, 114,
            18, 19, 115, 18, 115, 114, 192, 19, 18, 193, 114, 115,
            19, 20, 116, 19, 116, 115, 192, 20, 19, 193, 115, 116,
            20, 21, 117, 20, 117, 116, 192, 21, 20, 193, 116, 117,
            21, 22, 118, 21, 118, 117, 192, 22, 21, 193, 117, 118,
            22, 23, 119, 22, 119, 118, 192, 23, 22, 193, 118, 119,
            23, 24, 120, 23, 120, 119, 192, 24, 23, 193, 119, 120,
            24, 25, 121, 24, 121, 120, 192, 25, 24, 193, 120, 121,
            25, 26, 122, 25, 122, 121, 192, 26, 25, 193, 121, 122,
            26, 27, 123, 26, 123, 122, 192, 27, 26, 193, 122, 123,
            27, 28, 124, 27, 124, 123, 192, 28, 27, 193, 123, 124,
            28, 29, 125, 28, 125, 124, 192, 29, 28, 193, 124, 125,
            29, 30, 126, 29, 126, 125, 192, 30, 29, 193, 125, 126,
            30, 31, 127, 30, 127, 126, 192, 31, 30, 193, 126, 127,
            31, 32, 128, 31, 128, 127, 192, 32, 31, 193, 127, 128,
            32, 33, 129, 32, 129, 128, 192, 33, 32, 193, 128, 129,
            33, 34, 130, 33, 130, 129, 192, 34, 33, 193, 129, 130,
            34, 35, 131, 34, 131, 130, 192, 35, 34, 193, 130, 131,
            35, 36, 132, 35, 132, 131, 192, 36, 35, 193, 131, 132,
            36, 37, 133, 36, 133, 132, 192, 37, 36, 193, 132, 133,
            37, 38, 134, 37, 134, 133, 192, 38, 37, 193, 133, 134,
            38, 39, 135, 38, 135, 134, 192, 39, 38, 193, 134, 135,
            39, 40, 136, 39, 136, 135, 192, 40, 39, 193, 135, 136,
            40, 41, 137, 40, 137, 136, 192, 41, 40, 193, 136, 137,
            41, 42, 138, 41, 138, 137, 192, 42, 41, 193, 137, 138,
            42, 43, 139, 42, 139, 138, 192, 43, 42, 193, 138, 139,
            43, 44, 140, 43, 140, 139, 192, 44, 43, 193, 139, 140,
            44, 45, 141, 44, 141, 140, 192, 45, 44, 193, 140, 141,
            45, 46, 142, 45, 142, 141, 192, 46, 45, 193, 141, 142,
            46, 47, 143, 46, 143, 142, 192, 47, 46, 193, 142, 143,
            47, 48, 144, 47, 144, 143, 192, 48, 47, 193, 143, 144,
            48, 49, 145, 48, 145, 144, 192, 49, 48, 193, 144, 145,
            49, 50, 146, 49, 146, 145, 192, 50, 49, 193, 145, 146,
            50, 51, 147, 50, 147, 146, 192, 51, 50, 193, 146, 147,
            51, 52, 148, 51, 148, 147, 192, 52, 51, 193, 147, 148,
            52, 53, 149, 52, 149, 148, 192, 53, 52, 193, 148, 149,
            53, 54, 150, 53, 150, 149, 192, 54, 53, 193, 149, 150,
            54, 55, 151, 54, 151, 150, 192, 55, 54, 193, 150, 151,
            55, 56, 152, 55, 152, 151, 192, 56, 55, 193, 151, 152,
            56, 57, 153, 56, 153, 152, 192, 57, 56, 193, 152, 153,
            57, 58, 154, 57, 154, 153, 192, 58, 57, 193, 153, 154,
            58, 59, 155, 58, 155, 154, 192, 59, 58, 193, 154, 155,
            59, 60, 156, 59, 156, 155, 192, 60, 59, 193, 155, 156,
            60, 61, 157, 60, 157, 156, 192, 61, 60, 193, 156, 157,
            61, 62, 158, 61, 158, 157, 192, 62, 61, 193, 157, 158,
            62, 63, 159, 62, 159, 158, 192, 63, 62, 193, 158, 159,
            63, 64, 160, 63, 160, 159, 192, 64, 63, 193, 159, 160,
            64, 65, 161, 64, 161, 160, 192, 65, 64, 193, 160, 161,
            65, 66, 162, 65, 162, 161, 192, 66, 65, 193, 161, 162,
            66, 67, 163, 66, 163, 162, 192, 67, 66, 193, 162, 163,
            67, 68, 164, 67, 164, 163, 192, 68, 67, 193, 163, 164,
            68, 69, 165, 68, 165, 164, 192, 69, 68, 193, 164, 165,
            69, 70, 166, 69, 166, 165, 192, 70, 69, 193, 165, 166,
            70, 71, 167, 70, 167, 166, 192, 71, 70, 193, 166, 167,
            71, 72, 168, 71, 168, 167, 192, 72, 71, 193, 167, 168,
            72, 73, 169, 72, 169, 168, 192, 73, 72, 193, 168, 169,
            73, 74, 170, 73, 170, 169, 192, 74, 73, 193, 169, 170,
            74, 75, 171, 74, 171, 170, 192, 75, 74, 193, 170, 171,
            75, 76, 172, 75, 172, 171, 192, 76, 75, 193, 171, 172,
            76, 77, 173, 76, 173, 172, 192, 77, 76, 193, 172, 173,
            77, 78, 174, 77, 174, 173, 192, 78, 77, 193, 173, 174,
            78, 79, 175, 78, 175, 174, 192, 79, 78, 193, 174, 175,
            79, 80, 176, 79, 176, 175, 192, 80, 79, 193, 175, 176,
            80, 81, 177, 80, 177, 176, 192, 81, 80, 193, 176, 177,
            81, 82, 178, 81, 178, 177, 192, 82, 81, 193, 177, 178,
            82, 83, 179, 82, 179, 178, 192, 83, 82, 193, 178, 179,
            83, 84, 180, 83, 180, 179, 192, 84, 83, 193, 179, 180,
            84, 85, 181, 84, 181, 180, 192, 85, 84, 193, 180, 181,
            85, 86, 182, 85, 182, 181, 192, 86, 85, 193, 181, 182,
            86, 87, 183, 86, 183, 182, 192, 87, 86, 193, 182, 183,
            87, 88, 184, 87, 184, 183, 192, 88, 87, 193, 183, 184,
            88, 89, 185, 88, 185, 184, 192, 89, 88, 193, 184, 185,
            89, 90, 186, 89, 186, 185, 192, 90, 89, 193, 185, 186,
            90, 91, 187, 90, 187, 186, 192, 91, 90, 193, 186, 187,
            91, 92, 188, 91, 188, 187, 192, 92, 91, 193, 187, 188,
            92, 93, 189, 92, 189, 188, 192, 93, 92, 193, 188, 189,
            93, 94, 190, 93, 190, 189, 192, 94, 93, 193, 189, 190,
            94, 95, 191, 94, 191, 190, 192, 95, 94, 193, 190, 191,
            95, 0, 96, 95, 96, 191, 192, 0, 95, 193, 191, 96]
        point3f[] points = [
            (0.02000000, 0.00000000, -0.06000000), (0.02025964, 0.00132789, -0.06000000), (0.02012941, 0.00265009, -0.06000000), (0.01961571, 0.00390181, -0.06000000),
            (0.01902574, 0.00509793, -0.06000000), (0.01865158, 0.00633136, -0.06000000), (0.01847759, 0.00765367, -0.06000000), (0.01820930, 0.00897984, -0.06000000),
            (0.01758301, 0.01015155, -0.06000000), (0.01662939, 0.01111140, -0.06000000), (0.01562659, 0.01199071, -0.06000000), (0.01480891, 0.01298706, -0.06000000),
            (0.01414214, 0.01414214, -0.06000000), (0.01338677, 0.01526469, -0.06000000), (0.01235975, 0.01610754, -0.06000000), (0.01111140, 0.01662939, -0.06000000),
            (0.00984845, 0.01705801, -0.06000000), (0.00871171, 0.01766560, -0.06000000), (0.00765367, 0.01847759, -0.06000000), (0.00652622, 0.01922563, -0.06000000),
            (0.00525483, 0.01961130, -0.06000000), (0.00390181, 0.01961571, -0.06000000), (0.00257096, 0.01952838, -0.06000000), (0.00128824, 0.01965472, -0.06000000),
            (0.00000000, 0.02000000, -0.06000000), (-0.00132789, 0.02025964, -0.06000000), (-0.00265009, 0.02012941, -0.06000000), (-0.00390181, 0.01961571, -0.06000000),
            (-0.00509793, 0.01902574, -0.06000000), (-0.00633136, 0.01865158, -0.06000000), (-0.00765367, 0.01847759, -0.06000000), (-0.00897984, 0.01820930, -0.06000000),
            (-0.01015155, 0.01758301, -0.06000000), (-0.01111140, 0.01662939, -0.06000000), (-0.01199071, 0.01562659, -0.06000000), (-0.01298706, 0.01480891, -0.06000000),
            (-0.01414214, 0.01414214, -0.06000000), (-0.01526469, 0.01338677, -0.06000000), (-0.01610754, 0.01235975, -0.06000000), (-0.01662939, 0.01111140, -0.06000000),
            (-0.01705801, 0.00984845, -0.06000000), (-0.01766560, 0.00871171, -0.06000000), (-0.01847759, 0.00765367, -0.06000000), (-0.01922563, 0.00652622, -0.06000000),
            (-0.01961130, 0.00525483, -0.06000000), (-0.01961571, 0.00390181, -0.06000000), (-0.01952838, 0.00257096, -0.06000000), (-0.01965472, 0.00128824, -0.06000000),
            (-0.02000000, 0.00000000, -0.06000000), (-0.02025964, -0.00132789, -0.06000000), (-0.02012941, -0.00265009, -0.06000000), (-0.01961571, -0.00390181, -0.06000000),
            (-0.01902574, -0.00509793, -0.06000000), (-0.01865158, -0.00633136, -0.06000000), (-0.01847759, -0.00765367, -0.06000000), (-0.01820930, -0.00897984, -0.06000000),
            (-0.01758301, -0.01015155, -0.06000000), (-0.01662939, -0.01111140, -0.06000000), (-0.01562659, -0.01199071, -0.06000000), (-0.01480891, -0.01298706, -0.06000000),
            (-0.01414214, -0.01414214, -0.06000000), (-0.01338677, -0.01526469, -0.06000000), (-0.01235975, -0.01610754, -0.06000000), (-0.01111140, -0.01662939, -0.06000000),
            (-0.00984845, -0.01705801, -0.06000000), (-0.00871171, -0.01766560, -0.06000000), (-0.00765367, -0.01847759, -0.06000000), (-0.00652622, -0.01922563, -0.06000000),
            (-0.00525483, -0.01961130, -0.06000000), (-0.00390181, -0.01961571, -0.06000000), (-0.00257096, -0.01952838, -0.06000000), (-0.00128824, -0.01965472, -0.06000000),
            (-0.00000000, -0.02000000, -0.06000000), (0.00132789, -0.02025964, -0.06000000), (0.00265009, -0.02012941, -0.06000000), (0.00390181, -0.01961571, -0.06000000),
            (0.00509793, -0.01902574, -0.06000000), (0.00633136, -0.01865158, -0.06000000), (0.00765367, -0.01847759, -0.06000000), (0.00897984, -0.01820930, -0.06000000),
            (0.01015155, -0.01758301, -0.06000000), (0.01111140, -0.01662939, -0.06000000), (0.01199071, -0.01562659, -0.06000000), (0.01298706, -0.01480891, -0.06000000),
            (0.01414214, -0.01414214, -0.06000000), (0.01526469, -0.01338677, -0.06000000), (0.01610754, -0.01235975, -0.06000000), (0.01662939, -0.01111140, -0.06000000),
            (0.01705801, -0.00984845, -0.06000000), (0.01766560, -0.00871171, -0.06000000), (0.01847759, -0.00765367, -0.06000000), (0.01922563, -0.00652622, -0.06000000),
            (0.01961130, -0.00525483, -0.06000000), (0.01961571, -0.00390181, -0.06000000), (0.01952838, -0.00257096, -0.06000000), (0.01965472, -0.00128824, -0.06000000),
            (0.02000000, 0.00000000, 0.06000000), (0.02025964, 0.00132789, 0.06000000), (0.02012941, 0.00265009, 0.06000000), (0.01961571, 0.00390181, 0.06000000),
            (0.01902574, 0.00509793, 0.06000000), (0.01865158, 0.00633136, 0.06000000), (0.01847759, 0.00765367, 0.06000000), (0.01820930, 0.00897984, 0.06000000),
            (0.01758301, 0.01015155, 0.06000000), (0.01662939, 0.01111140, 0.06000000), (0.01562659, 0.01199071, 0.06000000), (0.01480891, 0.01298706, 0.06000000),
            (0.01414214, 0.01414214, 0.06000000), (0.01338677, 0.01526469, 0.06000000), (0.01235975, 0.01610754, 0.06000000), (0.01111140, 0.01662939, 0.06000000),
            (0.00984845, 0.01705801, 0.06000000), (0.00871171, 0.01766560, 0.06000000), (0.00765367, 0.01847759, 0.06000000), (0.00652622, 0.01922563, 0.06000000),
            (0.00525483, 0.01961130, 0.06000000), (0.00390181, 0.01961571, 0.06000000), (0.00257096, 0.01952838, 0.06000000), (0.00128824, 0.01965472, 0.06000000),
            (0.00000000, 0.02000000, 0.06000000), (-0.00132789, 0.02025964, 0.06000000), (-0.00265009, 0.02012941, 0.06000000), (-0.00390181, 0.01961571, 0.06000000),
            (-0.00509793, 0.01902574, 0.06000000), (-0.00633136, 0.01865158, 0.06000000), (-0.00765367, 0.01847759, 0.06000000), (-0.00897984, 0.01820930, 0.06000000),
            (-0.01015155, 0.01758301, 0.06000000), (-0.01111140, 0.01662939, 0.06000000), (-0.01199071, 0.01562659, 0.06000000), (-0.01298706, 0.01480891, 0.06000000),
            (-0.01414214, 0.01414214, 0.06000000), (-0.01526469, 0.01338677, 0.06000000), (-0.01610754, 0.01235975, 0.06000000), (-0.01662939, 0.01111140, 0.06000000),
            (-0.01705801, 0.00984845, 0.06000000), (-0.01766560, 0.00871171, 0.06000000), (-0.01847759, 0.00765367, 0.06000000), (-0.01922563, 0.00652622, 0.06000000),
            (-0.01961130, 0.00525483, 0.06000000), (-0.01961571, 0.00390181, 0.06000000), (-0.01952838, 0.00257096, 0.06000000), (-0.01965472, 0.00128824, 0.06000000),
            (-0.02000000, 0.00000000, 0.06000000), (-0.02025964, -0.00132789, 0.06000000), (-0.02012941, -0.00265009, 0.06000000), (-0.01961571, -0.00390181, 0.06000000),
            (-0.01902574, -0.00509793, 0.06000000), (-0.01865158, -0.00633136, 0.06000000), (-0.01847759, -0.00765367, 0.06000000), (-0.01820930, -0.00897984, 0.06000000),
            (-0.01758301, -0.01015155, 0.06000000), (-0.01662939, -0.01111140, 0.06000000), (-0.01562659, -0.01199071, 0.06000000), (-0.01480891, -0.01298706, 0.06000000),
            (-0.01414214, -0.01414214, 0.06000000), (-0.01338677, -0.01526469, 0.06000000), (-0.01235975, -0.01610754, 0.06000000), (-0.01111140, -0.01662939, 0.06000000),
            (-0.00984845, -0.01705801, 0.06000000), (-0.00871171, -0.01766560, 0.06000000), (-0.00765367, -0.01847759, 0.06000000), (-0.00652622, -0.01922563, 0.06000000),
            (-0.00525483, -0.01961130, 0.06000000), (-0.00390181, -0.01961571, 0.06000000), (-0.00257096, -0.01952838, 0.06000000), (-0.00128824, -0.01965472, 0.06000000),
            (-0.00000000, -0.02000000, 0.06000000), (0.00132789, -0.02025964, 0.06000000), (0.00265009, -0.02012941, 0.06000000), (0.00390181, -0.01961571, 0.06000000),
            (0.00509793, -0.01902574, 0.06000000), (0.00633136, -0.01865158, 0.06000000), (0.00765367, -0.01847759, 0.06000000), (0.00897984, -0.01820930, 0.06000000),
            (0.01015155, -0.01758301, 0.06000000), (0.01111140, -0.01662939, 0.06000000), (0.01199071, -0.01562659, 0.06000000), (0.01298706, -0.01480891, 0.06000000),
            (0.01414214, -0.01414214, 0.06000000), (0.01526469, -0.01338677, 0.06000000), (0.01610754, -0.01235975, 0.06000000), (0.01662939, -0.01111140, 0.06000000),
            (0.01705801, -0.00984845, 0.06000000), (0.01766560, -0.00871171, 0.06000000), (0.01847759, -0.00765367, 0.06000000), (0.01922563, -0.00652622, 0.06000000),
            (0.01961130, -0.00525483, 0.06000000), (0.01961571, -0.00390181, 0.06000000), (0.01952838, -0.00257096, 0.06000000), (0.01965472, -0.00128824, 0.06000000),
            (0.00000000, 0.00000000, -0.06000000), (0.00000000, 0.00000000, 0.06000000)
        ]
        uniform token subdivisionScheme = "none"
    }
}
